<svg xmlns="http://www.w3.org/2000/svg" width="430" height="430" style="width:100%;height:100%;transform:translate3d(0,0,0);content-visibility:visible" viewBox="0 0 430 430"><defs><clipPath id="a"><path d="M0 0h430v430H0z"/></clipPath><clipPath id="d"><path d="M0 0h430v430H0z"/></clipPath><clipPath id="e"><path fill="#fff" d="M383.467 250.966c0-73.436-59.531-132.967-132.967-132.967S117.533 177.53 117.533 250.966 177.064 383.933 250.5 383.933s132.967-59.531 132.967-132.967"/></clipPath><clipPath id="b"><path d="M0 0h430v430H0z"/></clipPath><clipPath id="c"><path fill="#fff"/></clipPath></defs><g clip-path="url(#a)"><g clip-path="url(#b)" style="display:none"><g style="display:none"><path class="primary"/><path class="primary" style="mix-blend-mode:multiply"/></g><g clip-path="url(#c)" style="display:none"><path class="primary"/><path class="primary" style="mix-blend-mode:multiply"/><path fill="none" class="secondary"/><path class="primary"/><path class="primary" style="mix-blend-mode:multiply"/><path fill="none" class="secondary"/><path fill="none" class="secondary"/><path class="primary"/><path class="primary" style="mix-blend-mode:multiply"/><path fill="none" class="secondary"/><path class="primary"/><path class="primary" style="mix-blend-mode:multiply"/><path fill="none" class="secondary"/><path fill="none" class="secondary"/></g><path fill="none" class="secondary" style="display:none"/><path fill="none" class="secondary" style="display:none"/><path fill="none" class="secondary" style="display:none"/><path fill="none" class="secondary" style="display:none"/></g><g clip-path="url(#d)" style="display:block"><g fill="#EBE6EE" style="display:block"><path d="M347.967 215.663c0 56.68-35.47 105.09-85.44 124.21-14.75 5.65-30.78 8.75-47.52 8.75-21.44 0-41.69-5.07-59.62-14.08-43.5-21.86-73.35-66.88-73.35-118.88 0-73.44 59.53-132.97 132.97-132.97 21.15 0 41.16 4.94 58.91 13.73 1.8.89 3.58 1.83 5.34 2.8h.01c8.47 4.69 16.37 10.27 23.57 16.62 27.67 24.36 45.13 60.05 45.13 99.82z" class="primary"/><path d="M-53.61-36.665c-27.44 56.42-13.06 122.33 31.02 162.59-43.5-21.86-73.35-66.88-73.35-118.88 0-73.44 59.53-132.97 132.97-132.97 21.15 0 41.16 4.94 58.91 13.73-59.66-11.08-121.72 18.32-149.55 75.53z" class="primary" opacity=".5" style="mix-blend-mode:multiply" transform="translate(177.977 208.617)"/></g><g clip-path="url(#e)" style="display:block" transform="translate(-35 -35)"><path fill="#EBE6EE" d="M165.666 220.214c0 21.552 17.472 39.024 39.024 39.024s39.024-17.472 39.024-39.024-17.472-39.024-39.024-39.024-39.024 17.472-39.024 39.024zm31.31 153c0 28.009 22.705 50.714 50.714 50.714s50.714-22.705 50.714-50.714S275.699 322.5 247.69 322.5s-50.714 22.705-50.714 50.714zm105-222.048c0 9.948 8.064 18.012 18.012 18.012S338 161.114 338 151.166s-8.064-18.012-18.012-18.012-18.012 8.064-18.012 18.012z" class="primary"/><path fill="#EBE6EE" fill-opacity=".5" d="M-39.024 0c0 21.552 17.472 39.024 39.024 39.024S39.024 21.552 39.024 0 21.552-39.024 0-39.024-39.024-21.552-39.024 0zm31.31 153c0 28.009 22.705 50.714 50.714 50.714S93.714 181.009 93.714 153 71.009 102.286 43 102.286-7.714 124.991-7.714 153zm105-222.048c0 9.948 8.064 18.012 18.012 18.012S133.31-59.1 133.31-69.048s-8.064-18.012-18.012-18.012-18.012 8.064-18.012 18.012z" class="primary" style="mix-blend-mode:multiply" transform="translate(204.69 220.214)"/><path fill="none" stroke="#121330" stroke-linecap="round" stroke-linejoin="round" stroke-width="7" d="M165.666 220.214c0 21.552 17.472 39.024 39.024 39.024s39.024-17.472 39.024-39.024-17.472-39.024-39.024-39.024-39.024 17.472-39.024 39.024zm31.31 153c0 28.009 22.705 50.714 50.714 50.714s50.714-22.705 50.714-50.714S275.699 322.5 247.69 322.5s-50.714 22.705-50.714 50.714zm105-222.048c0 9.948 8.064 18.012 18.012 18.012S338 161.114 338 151.166s-8.064-18.012-18.012-18.012-18.012 8.064-18.012 18.012z" class="secondary"/><path fill="#EBE6EE" d="M292.659 248.21c0 13.923 11.287 25.21 25.21 25.21s25.21-11.287 25.21-25.21S331.792 223 317.869 223s-25.21 11.287-25.21 25.21z" class="primary"/><path fill="#EBE6EE" fill-opacity=".5" d="M-25.21 0c0 13.923 11.287 25.21 25.21 25.21S25.21 13.923 25.21 0 13.923-25.21 0-25.21-25.21-13.923-25.21 0z" class="primary" style="mix-blend-mode:multiply" transform="translate(317.869 248.21)"/><path fill="none" stroke="#121330" stroke-linecap="round" stroke-linejoin="round" stroke-width="7" d="M292.659 248.21c0 13.923 11.287 25.21 25.21 25.21s25.21-11.287 25.21-25.21S331.792 223 317.869 223s-25.21 11.287-25.21 25.21z" class="secondary"/><path fill="none" stroke="#121330" stroke-linecap="round" stroke-linejoin="round" stroke-width="12" d="M182.763 295s0 0 0 0m69.234-137.812s0 0 0 0m61.872 151.957s0 0 0 0" class="secondary"/><path fill="#EBE6EE" d="M350.666 5.214c0 21.552 17.472 39.024 39.024 39.024s39.024-17.472 39.024-39.024S411.242-33.81 389.69-33.81s-39.024 17.472-39.024 39.024zm31.31 153c0 28.009 22.705 50.714 50.714 50.714s50.714-22.705 50.714-50.714S460.699 107.5 432.69 107.5s-50.714 22.705-50.714 50.714zm105-222.048c0 9.948 8.064 18.012 18.012 18.012S523-53.886 523-63.834s-8.064-18.012-18.012-18.012-18.012 8.064-18.012 18.012z" class="primary"/><path fill="#EBE6EE" fill-opacity=".5" d="M-39.024 0c0 21.552 17.472 39.024 39.024 39.024S39.024 21.552 39.024 0 21.552-39.024 0-39.024-39.024-21.552-39.024 0zm31.31 153c0 28.009 22.705 50.714 50.714 50.714S93.714 181.009 93.714 153 71.009 102.286 43 102.286-7.714 124.991-7.714 153zm105-222.048c0 9.948 8.064 18.012 18.012 18.012S133.31-59.1 133.31-69.048s-8.064-18.012-18.012-18.012-18.012 8.064-18.012 18.012z" class="primary" style="mix-blend-mode:multiply" transform="translate(389.69 5.214)"/><path fill="none" stroke="#121330" stroke-linecap="round" stroke-linejoin="round" stroke-width="7" d="M350.666 5.214c0 21.552 17.472 39.024 39.024 39.024s39.024-17.472 39.024-39.024S411.242-33.81 389.69-33.81s-39.024 17.472-39.024 39.024zm31.31 153c0 28.009 22.705 50.714 50.714 50.714s50.714-22.705 50.714-50.714S460.699 107.5 432.69 107.5s-50.714 22.705-50.714 50.714zm105-222.048c0 9.948 8.064 18.012 18.012 18.012S523-53.886 523-63.834s-8.064-18.012-18.012-18.012-18.012 8.064-18.012 18.012z" class="secondary"/><path fill="#EBE6EE" d="M477.659 33.21c0 13.923 11.287 25.21 25.21 25.21s25.21-11.287 25.21-25.21S516.792 8 502.869 8s-25.21 11.287-25.21 25.21z" class="primary"/><path fill="#EBE6EE" fill-opacity=".5" d="M-25.21 0c0 13.923 11.287 25.21 25.21 25.21S25.21 13.923 25.21 0 13.923-25.21 0-25.21-25.21-13.923-25.21 0z" class="primary" style="mix-blend-mode:multiply" transform="translate(502.869 33.21)"/><path fill="none" stroke="#121330" stroke-linecap="round" stroke-linejoin="round" stroke-width="7" d="M477.659 33.21c0 13.923 11.287 25.21 25.21 25.21s25.21-11.287 25.21-25.21S516.792 8 502.869 8s-25.21 11.287-25.21 25.21z" class="secondary"/><path fill="none" stroke="#121330" stroke-linecap="round" stroke-linejoin="round" stroke-width="12" d="M367.763 80s0 0 0 0m69.234-137.812s0 0 0 0m61.872 151.957s0 0 0 0" class="secondary"/></g><path fill="none" stroke="#121330" stroke-linecap="round" stroke-linejoin="round" stroke-width="7" d="M132.967 0c0-73.436-59.531-132.967-132.967-132.967S-132.967-73.436-132.967 0-73.436 132.967 0 132.967 132.967 73.436 132.967 0z" class="secondary" style="display:block" transform="translate(215 215.466)"/><path fill="none" stroke="#121330" stroke-linecap="round" stroke-linejoin="round" stroke-width="8" d="M0 0s0 0 0 0m0 0s0 0 0 0" class="secondary" style="display:block" transform="translate(81.465 82.599)"/><path fill="none" stroke="#121330" stroke-linecap="round" stroke-linejoin="round" stroke-width="8" d="M0 0s0 0 0 0m0 0s0 0 0 0" class="secondary" style="display:block" transform="translate(308.966 375.099)"/><path fill="none" stroke="#121330" stroke-linecap="round" stroke-linejoin="round" stroke-width="8" d="M0 0s0 0 0 0m0 0s0 0 0 0" class="secondary" style="display:block" transform="translate(347.966 348.099)"/></g></g></svg>